# xmcd
#
# Track frame offsets:
#	150
#	17586
#	34566
#	49612
#	72321
#	91869
#	117205
#	134803
#	151368
#	171531
#	175447
#	195608
#	217185
#	240091
#	268742
#	286834
#
# Disc length: 4054 seconds
#
# Revision: 0
# Processed by: cddbd v1.5.2PL0 Copyright (c) Steve Scherf et al.
# Submitted via: EasyCDDAExtractor 2010.6.0.0
#
DISCID=e50fd410
DTITLE=August Burns Red - Leveler (Deluxe Edition)
DYEAR=2011
DGENRE=metalcore
TTITLE0=Empire
TTITLE1=Internal Cannon
TTITLE2=Divisions
TTITLE3=Cutting The Ties
TTITLE4=Pangaea
TTITLE5=Carpe Diem
TTITLE6=40 Nights
TTITLE7=Salt and Light
TTITLE8=Poor Millionaire
TTITLE9=1/16/2011
TTITLE10=Boys of Fall
TTITLE11=Leveler
TTITLE12=Internal Cannon (Acoustic)
TTITLE13=Pangaea (Preformed by Bells)
TTITLE14=Boys of Fall (Preformed By Zachery Veilleux)
TTITLE15=Empire (MIDI)
EXTD=
EXTT0=
EXTT1=
EXTT2=
EXTT3=
EXTT4=
EXTT5=
EXTT6=
EXTT7=
EXTT8=
EXTT9=
EXTT10=
EXTT11=
EXTT12=
EXTT13=
EXTT14=
EXTT15=
PLAYORDER=
